<svg width="800" height="172" viewBox="0 0 800 172" fill="none" xmlns="http://www.w3.org/2000/svg">
<path d="M350.07 163.444L344.341 148.886H315.571L309.937 163.444H293.997L319.087 101.869C319.996 99.6489 321.543 97.75 323.533 96.4138C325.523 95.0776 327.865 94.3645 330.261 94.3655C332.653 94.3661 334.992 95.0784 336.979 96.4119C338.966 97.7454 340.512 99.64 341.422 101.855L366.607 163.444H350.07ZM320.581 136.068H339.222L329.895 112.281L320.581 136.068Z" fill="#002930"/>
<path d="M435.891 135.664C433.733 152.275 420.427 164.875 401.175 164.875C379.669 164.875 365.739 148.89 365.739 129.208C365.739 109.526 379.669 93.2145 401.175 93.2145C419.911 93.2145 433.325 105.733 435.674 121.827H420.522C418.268 113.522 411.208 107.473 401.066 107.568C388.372 107.677 380.592 117.518 380.592 129.099C380.592 140.68 388.263 150.63 401.27 150.63C411.412 150.63 418.784 144.473 420.835 135.678L435.891 135.664Z" fill="#002930"/>
<path d="M491.678 163.444L485.935 148.886H457.166L451.49 163.444H435.51L460.601 101.869C461.509 99.6489 463.056 97.75 465.046 96.4138C467.036 95.0776 469.378 94.3645 471.774 94.3655C474.167 94.3643 476.506 95.0759 478.493 96.4096C480.481 97.7433 482.027 99.6389 482.935 101.855L508.12 163.444H491.678ZM462.176 136.068H480.817L471.503 112.281L462.176 136.068Z" fill="#002930"/>
<path d="M513.376 94.746H542.254C562.62 94.746 577.378 109.1 577.378 128.891V129.203C577.378 148.981 562.633 163.444 542.254 163.444H513.376V94.746ZM527.917 108.896V149.185H542.051C554.134 149.185 562.538 141.192 562.538 129.203V128.891C562.538 116.902 554.134 108.896 542.051 108.896H527.917Z" fill="#002930"/>
<path d="M585.903 163.444V94.746H638.433V108.896H600.417V121.714H634.007V135.307H600.417V149.348H638.433V163.498L585.903 163.444Z" fill="#002930"/>
<path d="M725.855 163.448H711.314V116.281L691.763 163.448H682.436L662.98 116.485V163.448H648.439V106.291C648.439 103.086 649.711 100.012 651.974 97.7461C654.238 95.4799 657.308 94.2068 660.509 94.2068C662.906 94.2088 665.248 94.9245 667.238 96.263C669.228 97.6015 670.775 99.5023 671.683 101.724L687.256 140.232L702.856 101.642C703.755 99.4436 705.288 97.5627 707.258 96.2387C709.229 94.9147 711.548 94.2074 713.921 94.2068C715.489 94.2068 717.042 94.5163 718.491 95.1176C719.94 95.7189 721.256 96.6002 722.365 97.7111C723.473 98.822 724.352 100.141 724.951 101.592C725.55 103.043 725.857 104.598 725.855 106.168V163.448Z" fill="#002930"/>
<path d="M800 94.746L772.547 136.883V163.444H758.006V136.992L730.567 94.746H747.362L765.487 123.454L783.504 94.746H800Z" fill="#002930"/>
<path fill-rule="evenodd" clip-rule="evenodd" d="M76.4392 9.50697C61.3279 9.4989 46.5537 13.9775 33.9851 22.3764C21.4164 30.7753 11.618 42.7173 5.82899 56.6918C0.0399624 70.6663 -1.4796 86.0456 1.46253 100.885C4.40466 115.724 11.6763 129.356 22.3578 140.058C33.0392 150.759 46.6507 158.049 61.4706 161.005C76.2906 163.961 91.6534 162.451 105.616 156.665C119.578 150.879 131.514 141.078 139.912 128.501C148.31 115.924 152.794 101.135 152.796 86.0067C152.775 65.7338 144.725 46.2965 130.411 31.9563C116.098 17.616 96.6888 9.54294 76.4392 9.50697Z" fill="#00B533"/>
<path fill-rule="evenodd" clip-rule="evenodd" d="M184.024 171.369H152.797L199.285 0.630981H230.512L184.024 171.369Z" fill="#002930"/>
<path fill-rule="evenodd" clip-rule="evenodd" d="M231.963 171.369H200.736L247.21 0.630981H278.437L231.963 171.369Z" fill="#002930"/>
<path d="M361.883 35.5358C361.883 49.2237 351.428 58.6434 338.449 58.6434H318.952V79.7801H304.669V19.5372C304.669 17.647 305.418 15.8339 306.752 14.496C308.086 13.1581 309.895 12.4047 311.783 12.4011H338.449C351.578 12.3739 361.883 22.2558 361.883 35.5358ZM337.349 45.0507C342.983 45.0507 347.396 41.3263 347.396 35.5358C347.396 29.99 342.875 26.2656 337.349 26.2656H318.952V45.0915L337.349 45.0507Z" fill="#002930"/>
<path d="M369.364 12.3723H397.726C417.739 12.3723 432.212 26.4679 432.212 45.9055V46.2045C432.212 65.6285 417.739 79.8193 397.726 79.8193H369.364V12.3723ZM383.606 26.332V65.9004H397.482C409.348 65.9004 417.589 58.0438 417.589 46.2725V45.9735C417.589 34.1886 409.348 26.332 397.482 26.332H383.606Z" fill="#002930"/>
<path d="M497.774 35.5343C497.774 49.2221 487.307 58.6419 474.341 58.6419H454.83V79.7785H440.629V19.6444C440.629 17.7181 441.392 15.8704 442.752 14.507C444.111 13.1437 445.955 12.3759 447.879 12.3723H474.409C487.51 12.3723 497.774 22.2542 497.774 35.5343ZM473.241 45.0492C478.943 45.0492 483.424 41.216 483.288 35.2352C483.189 32.7894 482.14 30.4789 480.365 28.7956C478.59 27.1123 476.229 26.1894 473.784 26.2233H454.776V45.0899L473.241 45.0492Z" fill="#002930"/>
</svg>
