<svg width="112" height="32" viewBox="0 0 112 32" fill="none" xmlns="http://www.w3.org/2000/svg">
<g clip-path="url(#clip0_13881_249180)">
<path d="M14.394 27.4795C14.394 26.9589 14.1873 26.4597 13.8192 26.0916C13.4511 25.7235 12.9518 25.5167 12.4312 25.5167C11.9107 25.5167 11.4114 25.7235 11.0433 26.0916C10.6752 26.4597 10.4684 26.9589 10.4684 27.4795H3.92573C3.57868 27.4795 3.24585 27.3416 3.00045 27.0962C2.75505 26.8508 2.61719 26.518 2.61719 26.171V5.23432C2.61719 4.88727 2.75505 4.55444 3.00045 4.30904C3.24585 4.06364 3.57868 3.92578 3.92573 3.92578H10.4684C10.4684 4.44635 10.6752 4.9456 11.0433 5.3137C11.4114 5.6818 11.9107 5.88859 12.4312 5.88859C12.9518 5.88859 13.4511 5.6818 13.8192 5.3137C14.1873 4.9456 14.394 4.44635 14.394 3.92578H27.4795C27.8265 3.92578 28.1593 4.06364 28.4047 4.30904C28.6501 4.55444 28.788 4.88727 28.788 5.23432V12.4313C27.9204 12.4313 27.0883 12.776 26.4748 13.3894C25.8613 14.0029 25.5166 14.835 25.5166 15.7026C25.5166 16.5703 25.8613 17.4023 26.4748 18.0158C27.0883 18.6293 27.9204 18.974 28.788 18.974V26.171C28.788 26.518 28.6501 26.8508 28.4047 27.0962C28.1593 27.3416 27.8265 27.4795 27.4795 27.4795H14.394ZM12.4312 13.7398C12.9518 13.7398 13.4511 13.533 13.8192 13.1649C14.1873 12.7968 14.394 12.2976 14.394 11.777C14.394 11.2565 14.1873 10.7572 13.8192 10.3891C13.4511 10.021 12.9518 9.81421 12.4312 9.81421C11.9107 9.81421 11.4114 10.021 11.0433 10.3891C10.6752 10.7572 10.4684 11.2565 10.4684 11.777C10.4684 12.2976 10.6752 12.7968 11.0433 13.1649C11.4114 13.533 11.9107 13.7398 12.4312 13.7398ZM12.4312 21.5911C12.9518 21.5911 13.4511 21.3843 13.8192 21.0162C14.1873 20.6481 14.394 20.1488 14.394 19.6283C14.394 19.1077 14.1873 18.6084 13.8192 18.2403C13.4511 17.8722 12.9518 17.6655 12.4312 17.6655C11.9107 17.6655 11.4114 17.8722 11.0433 18.2403C10.6752 18.6084 10.4684 19.1077 10.4684 19.6283C10.4684 20.1488 10.6752 20.6481 11.0433 21.0162C11.4114 21.3843 11.9107 21.5911 12.4312 21.5911Z" fill="#002930"/>
</g>
<path d="M41.216 10.4H43.394L46.796 20.714H46.904L50.288 10.4H52.484L48.272 23.018H45.41L41.216 10.4ZM57.3139 23.144C56.3299 23.144 55.4959 22.916 54.8119 22.46C54.1399 22.004 53.6359 21.404 53.2999 20.66C52.9639 19.916 52.7959 19.1 52.7959 18.212C52.7959 17.336 52.9639 16.526 53.2999 15.782C53.6359 15.026 54.1399 14.42 54.8119 13.964C55.4959 13.508 56.3299 13.28 57.3139 13.28C58.2979 13.28 59.1259 13.508 59.7979 13.964C60.4819 14.42 60.9859 15.02 61.3099 15.764C61.6459 16.508 61.8139 17.318 61.8139 18.194C61.8139 19.07 61.6459 19.886 61.3099 20.642C60.9859 21.398 60.4819 22.004 59.7979 22.46C59.1259 22.916 58.2979 23.144 57.3139 23.144ZM57.3139 21.344C58.0699 21.344 58.6519 21.044 59.0599 20.444C59.4679 19.844 59.6719 19.094 59.6719 18.194C59.6719 17.294 59.4679 16.55 59.0599 15.962C58.6519 15.362 58.0699 15.062 57.3139 15.062C56.5459 15.062 55.9579 15.362 55.5499 15.962C55.1539 16.55 54.9559 17.294 54.9559 18.194C54.9559 19.094 55.1599 19.844 55.5679 20.444C55.9759 21.044 56.5579 21.344 57.3139 21.344ZM72.2691 23H70.0731V21.398H69.9651C69.7371 21.89 69.3771 22.31 68.8851 22.658C68.4051 23.006 67.8171 23.18 67.1211 23.18C66.2931 23.18 65.6271 22.982 65.1231 22.586C64.6191 22.178 64.2651 21.674 64.0611 21.074C63.8571 20.474 63.7551 19.856 63.7551 19.22V13.496H65.9331V18.878C65.9331 19.646 66.1131 20.246 66.4731 20.678C66.8331 21.11 67.3311 21.326 67.9671 21.326C68.6511 21.326 69.1731 21.098 69.5331 20.642C69.8931 20.174 70.0731 19.586 70.0731 18.878V13.496H72.2691V23ZM78.6542 23.144C77.6462 23.144 76.8002 22.91 76.1162 22.442C75.4442 21.974 74.9402 21.368 74.6042 20.624C74.2802 19.868 74.1182 19.058 74.1182 18.194C74.1182 17.342 74.2802 16.544 74.6042 15.8C74.9402 15.044 75.4442 14.432 76.1162 13.964C76.8002 13.496 77.6462 13.262 78.6542 13.262C79.9142 13.262 80.9042 13.622 81.6242 14.342C82.3562 15.062 82.7942 15.962 82.9382 17.042H80.8142C80.7302 16.454 80.5082 15.98 80.1482 15.62C79.7882 15.248 79.2962 15.062 78.6722 15.062C77.8682 15.062 77.2682 15.368 76.8722 15.98C76.4762 16.58 76.2782 17.318 76.2782 18.194C76.2782 19.094 76.4762 19.85 76.8722 20.462C77.2682 21.062 77.8682 21.362 78.6722 21.362C79.2842 21.362 79.7702 21.176 80.1302 20.804C80.5022 20.432 80.7302 19.952 80.8142 19.364H82.9382C82.7942 20.444 82.3562 21.344 81.6242 22.064C80.9042 22.784 79.9142 23.144 78.6542 23.144ZM84.7961 9.608H86.9921V15.044H87.1181C87.3461 14.552 87.7061 14.132 88.1981 13.784C88.7021 13.436 89.3141 13.262 90.0341 13.262C91.2581 13.262 92.1401 13.658 92.6801 14.45C93.2201 15.242 93.4901 16.16 93.4901 17.204V23H91.3121V17.546C91.3121 16.766 91.1201 16.166 90.7361 15.746C90.3641 15.314 89.8361 15.098 89.1521 15.098C88.5041 15.098 87.9821 15.326 87.5861 15.782C87.1901 16.226 86.9921 16.814 86.9921 17.546V23H84.7961V9.608ZM99.8877 23.144C98.9037 23.144 98.0697 22.91 97.3857 22.442C96.7137 21.974 96.2097 21.368 95.8737 20.624C95.5497 19.868 95.3877 19.064 95.3877 18.212C95.3877 17.348 95.5497 16.544 95.8737 15.8C96.2097 15.044 96.7137 14.432 97.3857 13.964C98.0697 13.496 98.9097 13.262 99.9057 13.262C101.226 13.262 102.27 13.688 103.038 14.54C103.818 15.392 104.208 16.622 104.208 18.23V18.824H97.5117V18.968C97.5117 19.388 97.6077 19.784 97.7997 20.156C98.0037 20.528 98.2797 20.828 98.6277 21.056C98.9877 21.272 99.3957 21.38 99.8517 21.38C100.368 21.38 100.806 21.26 101.166 21.02C101.526 20.768 101.796 20.432 101.976 20.012H104.118C103.866 20.924 103.38 21.674 102.66 22.262C101.94 22.85 101.016 23.144 99.8877 23.144ZM102.102 17.384C102.078 16.52 101.862 15.89 101.454 15.494C101.058 15.086 100.536 14.882 99.8877 14.882C99.1917 14.882 98.6337 15.11 98.2137 15.566C97.8057 16.01 97.5897 16.616 97.5657 17.384H102.102ZM106.154 13.496H108.314V15.008H108.44C108.596 14.588 108.878 14.234 109.286 13.946C109.706 13.646 110.24 13.496 110.888 13.496C111.116 13.496 111.35 13.526 111.59 13.586L111.5 15.62C111.32 15.56 111.164 15.524 111.032 15.512C110.9 15.488 110.732 15.476 110.528 15.476C109.796 15.476 109.244 15.674 108.872 16.07C108.5 16.466 108.314 17.126 108.314 18.05V23H106.154V13.496Z" fill="#002930"/>
<defs>
<clipPath id="clip0_13881_249180">
<rect width="31.405" height="31.405" fill="white"/>
</clipPath>
</defs>
</svg>
