<svg width="19" height="20" viewBox="0 0 19 20" fill="none" xmlns="http://www.w3.org/2000/svg">
<path fill-rule="evenodd" clip-rule="evenodd" d="M9.68969 0.00476074C10.2422 0.00477242 10.6901 0.452673 10.6901 1.00518H12.6909C12.6909 0.883622 12.6837 0.763747 12.6697 0.645966C15.1734 1.78096 16.915 4.30212 16.915 7.23004V12.2498L18.5862 15.5607C18.922 16.2261 18.4384 17.012 17.6931 17.012H12.5202C12.1081 18.1777 10.9964 19.0128 9.68967 19.0128C8.38289 19.0128 7.27118 18.1777 6.85917 17.012H1.6863C0.940939 17.012 0.457333 16.2261 0.793198 15.5607L2.46441 12.2498V7.23004C2.46441 4.30214 4.20595 1.78099 6.70967 0.645985M15.0214 12.9388L16.0674 15.0111H3.31189L4.35791 12.9388C4.42847 12.799 4.46523 12.6446 4.46523 12.488V7.23003C4.46523 4.34465 6.80429 2.00559 9.68967 2.00559C12.575 2.00559 14.9141 4.34465 14.9141 7.23003V12.488C14.9141 12.6446 14.9509 12.799 15.0214 12.9388Z" fill="#92929D"/>
</svg>
