<svg xmlns="http://www.w3.org/2000/svg" width="17" height="13" viewBox="0 0 17 13" fill="none">
<path d="M5.3125 3.25C5.1716 3.25 5.03648 3.2928 4.93685 3.36899C4.83722 3.44517 4.78125 3.54851 4.78125 3.65625C4.78125 3.76399 4.83722 3.86733 4.93685 3.94351C5.03648 4.0197 5.1716 4.0625 5.3125 4.0625H11.6875C11.8284 4.0625 11.9635 4.0197 12.0632 3.94351C12.1628 3.86733 12.2188 3.76399 12.2188 3.65625C12.2188 3.54851 12.1628 3.44517 12.0632 3.36899C11.9635 3.2928 11.8284 3.25 11.6875 3.25H5.3125ZM4.78125 5.28125C4.78125 5.17351 4.83722 5.07017 4.93685 4.99399C5.03648 4.9178 5.1716 4.875 5.3125 4.875H11.6875C11.8284 4.875 11.9635 4.9178 12.0632 4.99399C12.1628 5.07017 12.2188 5.17351 12.2188 5.28125C12.2188 5.38899 12.1628 5.49233 12.0632 5.56851C11.9635 5.6447 11.8284 5.6875 11.6875 5.6875H5.3125C5.1716 5.6875 5.03648 5.6447 4.93685 5.56851C4.83722 5.49233 4.78125 5.38899 4.78125 5.28125ZM5.3125 6.5C5.1716 6.5 5.03648 6.5428 4.93685 6.61899C4.83722 6.69517 4.78125 6.79851 4.78125 6.90625C4.78125 7.01399 4.83722 7.11733 4.93685 7.19351C5.03648 7.2697 5.1716 7.3125 5.3125 7.3125H11.6875C11.8284 7.3125 11.9635 7.2697 12.0632 7.19351C12.1628 7.11733 12.2188 7.01399 12.2188 6.90625C12.2188 6.79851 12.1628 6.69517 12.0632 6.61899C11.9635 6.5428 11.8284 6.5 11.6875 6.5H5.3125ZM5.3125 8.125C5.1716 8.125 5.03648 8.1678 4.93685 8.24399C4.83722 8.32017 4.78125 8.42351 4.78125 8.53125C4.78125 8.63899 4.83722 8.74233 4.93685 8.81851C5.03648 8.8947 5.1716 8.9375 5.3125 8.9375H8.5C8.6409 8.9375 8.77602 8.8947 8.87565 8.81851C8.97528 8.74233 9.03125 8.63899 9.03125 8.53125C9.03125 8.42351 8.97528 8.32017 8.87565 8.24399C8.77602 8.1678 8.6409 8.125 8.5 8.125H5.3125Z" fill="#808080"/>
<path d="M2.125 1.625C2.125 1.19402 2.34888 0.780698 2.7474 0.475952C3.14591 0.171205 3.68641 0 4.25 0L12.75 0C13.3136 0 13.8541 0.171205 14.2526 0.475952C14.6511 0.780698 14.875 1.19402 14.875 1.625V11.375C14.875 11.806 14.6511 12.2193 14.2526 12.524C13.8541 12.8288 13.3136 13 12.75 13H4.25C3.68641 13 3.14591 12.8288 2.7474 12.524C2.34888 12.2193 2.125 11.806 2.125 11.375V1.625ZM12.75 0.8125H4.25C3.96821 0.8125 3.69796 0.898102 3.4987 1.05048C3.29944 1.20285 3.1875 1.40951 3.1875 1.625V11.375C3.1875 11.5905 3.29944 11.7972 3.4987 11.9495C3.69796 12.1019 3.96821 12.1875 4.25 12.1875H12.75C13.0318 12.1875 13.302 12.1019 13.5013 11.9495C13.7006 11.7972 13.8125 11.5905 13.8125 11.375V1.625C13.8125 1.40951 13.7006 1.20285 13.5013 1.05048C13.302 0.898102 13.0318 0.8125 12.75 0.8125Z" fill="#808080"/>
</svg>
