<svg width="21" height="21" viewBox="0 0 21 21" fill="none" xmlns="http://www.w3.org/2000/svg">
<path d="M16.625 19.25H4.375C3.67881 19.25 3.01113 18.9734 2.51884 18.4812C2.02656 17.9889 1.75 17.3212 1.75 16.625V2.625C1.75 2.39294 1.84219 2.17038 2.00628 2.00628C2.17038 1.84219 2.39294 1.75 2.625 1.75H14.875C15.1071 1.75 15.3296 1.84219 15.4937 2.00628C15.6578 2.17038 15.75 2.39294 15.75 2.625V8.75H19.25V16.625C19.25 17.3212 18.9734 17.9889 18.4812 18.4812C17.9889 18.9734 17.3212 19.25 16.625 19.25ZM15.75 10.5V16.625C15.75 16.8571 15.8422 17.0796 16.0063 17.2437C16.1704 17.4078 16.3929 17.5 16.625 17.5C16.8571 17.5 17.0796 17.4078 17.2437 17.2437C17.4078 17.0796 17.5 16.8571 17.5 16.625V10.5H15.75ZM4.375 5.25V10.5H9.625V5.25H4.375ZM4.375 11.375V13.125H13.125V11.375H4.375ZM4.375 14V15.75H13.125V14H4.375ZM6.125 7H7.875V8.75H6.125V7Z" fill="#323232"/>
</svg>
