<svg width="24" height="24" viewBox="0 0 24 24" fill="none" xmlns="http://www.w3.org/2000/svg">
<path d="M7.55556 6.6V3.9C7.55556 3.6613 7.64921 3.43239 7.81591 3.2636C7.9826 3.09482 8.2087 3 8.44444 3H19.1111C19.3469 3 19.573 3.09482 19.7397 3.2636C19.9064 3.43239 20 3.6613 20 3.9V16.5C20 16.7387 19.9064 16.9676 19.7397 17.1364C19.573 17.3052 19.3469 17.4 19.1111 17.4H16.4444V20.1C16.4444 20.5968 16.0444 21 15.5493 21H4.89511C4.77789 21.0007 4.66169 20.9779 4.55318 20.933C4.44466 20.8881 4.34599 20.822 4.26281 20.7384C4.17963 20.6547 4.11359 20.5553 4.06849 20.4457C4.02339 20.3362 4.00011 20.2187 4 20.1L4.00267 7.5C4.00267 7.0032 4.40267 6.6 4.89778 6.6H7.55556ZM5.78044 8.4L5.77778 19.2H14.6667V8.4H5.78044ZM9.33333 6.6H16.4444V15.6H18.2222V4.8H9.33333V6.6Z" fill="#323232"/>
</svg>
