<svg width="18" height="19" viewBox="0 0 18 19" fill="none" xmlns="http://www.w3.org/2000/svg">
<path d="M3.621 16.3281L3.606 16.3431L3.59025 16.3281H2.244C2.04661 16.3279 1.85737 16.2494 1.71787 16.1097C1.57836 15.9701 1.5 15.7808 1.5 15.5834V3.57288C1.50137 3.37591 1.58018 3.18739 1.71938 3.04804C1.85859 2.90869 2.04704 2.8297 2.244 2.82812H15.756C16.167 2.82812 16.5 3.16188 16.5 3.57288V15.5834C16.4986 15.7803 16.4198 15.9689 16.2806 16.1082C16.1414 16.2476 15.953 16.3266 15.756 16.3281H3.621ZM15 11.8281V4.32812H3V14.8281L10.5 7.32812L15 11.8281ZM15 13.9491L10.5 9.44913L5.121 14.8281H15V13.9491ZM6 8.82812C5.60218 8.82812 5.22064 8.67009 4.93934 8.38878C4.65804 8.10748 4.5 7.72595 4.5 7.32812C4.5 6.9303 4.65804 6.54877 4.93934 6.26746C5.22064 5.98616 5.60218 5.82812 6 5.82812C6.39782 5.82812 6.77936 5.98616 7.06066 6.26746C7.34196 6.54877 7.5 6.9303 7.5 7.32812C7.5 7.72595 7.34196 8.10748 7.06066 8.38878C6.77936 8.67009 6.39782 8.82812 6 8.82812Z" fill="#99A9AC"/>
</svg>
