<svg width="28" height="28" viewBox="0 0 28 28" fill="none" xmlns="http://www.w3.org/2000/svg">
<path d="M13.7145 27.4256C15.4588 27.4268 17.1873 27.0938 18.8066 26.4447C18.1581 25.1342 18.113 23.6062 18.6834 22.2599C19.2535 20.9137 20.3823 19.8828 21.7749 19.4369C23.1674 18.991 24.685 19.1743 25.9312 19.9389C27.288 17.2765 27.7379 14.2437 27.2126 11.3027C26.6874 8.3611 25.2159 5.67176 23.0216 3.64331C20.8276 1.61495 18.0309 0.358958 15.0572 0.066104C12.0836 -0.226928 9.09563 0.45953 6.54791 2.0208C4.00019 3.58208 2.03228 5.93286 0.943142 8.71529C-0.145947 11.4979 -0.296135 14.5598 0.515024 17.4356C1.32635 20.3115 3.05454 22.8435 5.43718 24.6468C7.81977 26.4501 10.7259 27.4256 13.714 27.4254L13.7145 27.4256Z" fill="black"/>
<path fill-rule="evenodd" clip-rule="evenodd" d="M23 20C25.2093 20 27 21.7909 27 24C27 26.2093 25.2091 28 23 28C20.7907 28 19 26.2091 19 24C19 21.7907 20.7909 20 23 20ZM21.0198 24.0523C20.872 23.8889 20.8848 23.6369 21.0479 23.4894C21.2112 23.3416 21.4633 23.3544 21.6108 23.5175L22.6072 24.6184L24.7603 22.3944C24.9141 22.2363 25.1667 22.2328 25.3247 22.3866C25.4828 22.5404 25.4863 22.793 25.3325 22.9511L22.8839 25.4803L22.8833 25.4798C22.8776 25.4858 22.8713 25.4918 22.865 25.4973C22.7019 25.6451 22.4499 25.6325 22.3021 25.4692L21.0195 24.0522L21.0198 24.0523Z" fill="#008000"/>
<path d="M13.7391 10.011C14.4096 10.011 14.955 9.4646 14.955 8.79295C14.955 8.12133 14.4096 7.57494 13.7391 7.57494C13.0685 7.57494 12.5231 8.12131 12.5231 8.79295C12.5231 9.46457 13.0685 10.011 13.7391 10.011ZM13.7391 8.21161C14.059 8.21161 14.3194 8.47243 14.3194 8.79295C14.3194 9.11357 14.059 9.3743 13.7391 9.3743C13.419 9.3743 13.1587 9.11347 13.1587 8.79295C13.1587 8.47243 13.4191 8.21161 13.7391 8.21161ZM12.3095 14.5948C12.6423 14.5948 12.9552 14.465 13.1905 14.2293C13.6762 13.7428 13.6762 12.951 13.1905 12.4645C12.9552 12.2288 12.6424 12.099 12.3095 12.099C11.9768 12.099 11.6639 12.2288 11.4286 12.4645C11.1933 12.7002 11.0637 13.0136 11.0637 13.347C11.0637 13.6803 11.1933 13.9937 11.4286 14.2294C11.6639 14.465 11.9767 14.5948 12.3095 14.5948ZM11.8781 12.9147C11.9933 12.7992 12.1466 12.7357 12.3095 12.7357C12.4725 12.7357 12.6257 12.7992 12.741 12.9147C12.9789 13.1531 12.9789 13.5409 12.741 13.7792C12.6257 13.8947 12.4725 13.9582 12.3095 13.9582C12.1466 13.9582 11.9933 13.8947 11.8781 13.7792C11.7628 13.6637 11.6993 13.5102 11.6993 13.347C11.6993 13.1837 11.7628 13.0301 11.8781 12.9147V12.9147ZM16.2285 12.7355L11.6991 17.2724C11.6371 17.3346 11.5557 17.3657 11.4744 17.3657C11.393 17.3657 11.3117 17.3346 11.2497 17.2724C11.1256 17.1481 11.1256 16.9465 11.2497 16.8222L15.779 12.2853C15.9032 12.161 16.1044 12.161 16.2284 12.2853C16.3526 12.4097 16.3526 12.6112 16.2284 12.7355H16.2285ZM15.1687 14.963C14.836 14.963 14.5231 15.0928 14.2879 15.3285C14.0526 15.5642 13.923 15.8775 13.923 16.2109C13.923 16.5442 14.0526 16.8576 14.2879 17.0933C14.5232 17.329 14.836 17.4588 15.1688 17.4588C15.5016 17.4588 15.8145 17.329 16.0498 17.0933C16.5355 16.6067 16.5355 15.815 16.0498 15.3285C15.8144 15.0929 15.5015 14.963 15.1687 14.963ZM15.6001 16.6431C15.4848 16.7586 15.3317 16.8222 15.1686 16.8222C15.0057 16.8222 14.8524 16.7586 14.7372 16.6431C14.6219 16.5276 14.5584 16.3741 14.5584 16.2109C14.5584 16.0477 14.6219 15.8942 14.7372 15.7787C14.8525 15.6632 15.0057 15.5996 15.1686 15.5996C15.3316 15.5996 15.4848 15.6632 15.6001 15.7787C15.8381 16.017 15.8381 16.4048 15.6001 16.6432V16.6431ZM18.0832 9.00696L14.8732 6.01812C14.5764 5.74175 14.1908 5.5896 13.7874 5.5896C13.3922 5.5896 13.0122 5.73645 12.7178 6.00325L9.40491 9.00349C9.19881 9.19013 9.08984 9.43579 9.08984 9.71406V18.2139C9.08984 18.7421 9.51898 19.1719 10.0463 19.1719H17.432C17.9594 19.1719 18.3885 18.7421 18.3885 18.2139V9.70873C18.3885 9.43567 18.2829 9.19304 18.0833 9.00705L18.0832 9.00696ZM17.7528 18.2138C17.7528 18.391 17.6088 18.5351 17.432 18.5351H10.0462C9.86932 18.5351 9.72537 18.3909 9.72537 18.2138L9.72546 9.71396C9.72546 9.61666 9.75904 9.54097 9.83111 9.47559L13.144 6.47536C13.3214 6.31467 13.5499 6.2262 13.7874 6.2262C14.0298 6.2262 14.2618 6.3179 14.4406 6.48445L17.6506 9.47329C17.7205 9.53838 17.7529 9.61313 17.7529 9.70863L17.7528 18.2138Z" fill="white"/>
</svg>
