<svg width="114" height="240" viewBox="0 0 114 240" fill="none" xmlns="http://www.w3.org/2000/svg">
<path d="M113.122 154.555C113.122 131.035 99.681 115.914 70.001 104.715C48.161 96.3166 39.2 91.836 39.2 81.195C39.2 72.7966 47.0398 64.957 63.278 64.957C71.1178 64.957 77.837 66.0781 83.997 67.7578C91.8368 69.9961 100.235 64.957 102.477 56.5588C104.715 48.1604 99.6762 39.1998 91.278 37.5198C85.6764 35.8401 78.958 35.2815 71.118 34.719V14.559C71.118 6.71919 64.3992 0 56.559 0C48.7188 0 42 6.71879 42 14.559V34.719V36.9573C15.68 43.1175 0 61.5983 0 84.5593C0 108.637 18.48 124.321 45.922 133.84C66.082 140.559 73.922 146.719 73.922 156.801C73.922 167.442 64.9611 174.723 47.602 174.723C38.0825 174.723 29.122 173.044 21.282 170.243C12.8836 167.442 3.92302 172.481 1.68002 181.442V182C-0.558277 189.84 4.48081 198.238 12.321 200.48C20.7194 203.281 31.36 204.961 42.001 205.519L42.0049 224.554C42.0049 232.394 48.7237 239.113 56.5639 239.113C64.4041 239.113 71.1229 232.395 71.1229 224.554V204.394V203.273C99.6849 195.996 113.123 176.394 113.123 154.554L113.122 154.555Z" fill="black"/>
</svg>
