<svg width="25" height="25" viewBox="0 0 25 25" fill="none" xmlns="http://www.w3.org/2000/svg">
<path d="M12.6953 13.3243L16.9383 17.5663L15.5233 18.9813L13.6953 17.1533V22.7383H11.6953V17.1513L9.86733 18.9813L8.45233 17.5663L12.6953 13.3243ZM12.6953 2.73828C14.4123 2.73836 16.0694 3.3694 17.3515 4.5114C18.6337 5.6534 19.4514 7.22674 19.6493 8.93228C20.8936 9.2716 21.9791 10.0374 22.716 11.0958C23.4529 12.1542 23.7945 13.438 23.6809 14.7227C23.5674 16.0074 23.006 17.2113 22.0949 18.1241C21.1838 19.0369 19.9808 19.6004 18.6963 19.7163V17.7023C19.1565 17.6366 19.599 17.4798 19.9979 17.2413C20.3969 17.0027 20.7443 16.687 21.0199 16.3127C21.2955 15.9384 21.4938 15.5129 21.6032 15.0611C21.7126 14.6093 21.7309 14.1403 21.657 13.6813C21.5832 13.2224 21.4187 12.7828 21.173 12.3881C20.9274 11.9935 20.6057 11.6517 20.2265 11.3828C19.8474 11.1138 19.4185 10.9231 18.9648 10.8217C18.5112 10.7203 18.0419 10.7103 17.5843 10.7923C17.7409 10.0632 17.7325 9.30825 17.5595 8.58283C17.3866 7.85742 17.0536 7.17987 16.5849 6.59981C16.1162 6.01976 15.5237 5.55189 14.8508 5.23048C14.1779 4.90906 13.4416 4.74225 12.6958 4.74225C11.9501 4.74225 11.2138 4.90906 10.5409 5.23048C9.86793 5.55189 9.27542 6.01976 8.80673 6.59981C8.33804 7.17987 8.00504 7.85742 7.83211 8.58283C7.65919 9.30825 7.65072 10.0632 7.80733 10.7923C6.89498 10.621 5.95195 10.8191 5.18567 11.343C4.4194 11.867 3.89266 12.6739 3.72133 13.5863C3.55 14.4986 3.74811 15.4417 4.27209 16.2079C4.79607 16.9742 5.60298 17.501 6.51533 17.6723L6.69533 17.7023V19.7163C5.41078 19.6006 4.20773 19.0372 3.29646 18.1245C2.38519 17.2118 1.82366 16.0078 1.71 14.7231C1.59635 13.4384 1.93781 12.1546 2.6747 11.0961C3.41159 10.0375 4.49704 9.27167 5.74133 8.93228C5.93903 7.22666 6.75673 5.65319 8.03891 4.51115C9.32108 3.3691 10.9783 2.73814 12.6953 2.73828Z" fill="white"/>
</svg>
