<svg width="16" height="18" viewBox="0 0 16 18" fill="none" xmlns="http://www.w3.org/2000/svg">
<path fill-rule="evenodd" clip-rule="evenodd" d="M7.42234 16.5415H11.6639C12.0575 16.5415 12.435 16.3854 12.7132 16.1063C12.9922 15.8281 13.1483 15.4507 13.1483 15.057V12.5122C13.1483 12.161 12.8633 11.876 12.5121 11.876C12.1609 11.876 11.8759 12.161 11.8759 12.5122V15.057C11.8759 15.113 11.8539 15.1674 11.814 15.2071C11.7741 15.247 11.7198 15.269 11.6639 15.269H7.42234C7.07115 15.269 6.78613 15.5541 6.78613 15.9053C6.78613 16.2564 7.07115 16.5415 7.42234 16.5415Z" fill="black"/>
<path fill-rule="evenodd" clip-rule="evenodd" d="M13.1481 4.02952V1.48468C13.1481 0.665282 12.4839 0.000244141 11.6637 0.000244141H0.636209C0.285014 0.000244141 0 0.285258 0 0.636453V14.2088C0 14.56 0.285014 14.845 0.636209 14.845C0.987403 14.845 1.27242 14.56 1.27242 14.2088V1.27266H11.6637C11.7807 1.27266 11.8757 1.36767 11.8757 1.48468V4.02952C11.8757 4.38071 12.1607 4.66573 12.5119 4.66573C12.8631 4.66573 13.1481 4.38071 13.1481 4.02952Z" fill="black"/>
<path fill-rule="evenodd" clip-rule="evenodd" d="M8.05855 16.515V3.21496C8.05855 2.55247 7.61917 1.96966 6.98212 1.78731C5.31024 1.30971 0.810897 0.0245367 0.810897 0.0245367C0.619184 -0.0305626 0.412267 0.00848942 0.252779 0.128064C0.093301 0.24849 0 0.436796 0 0.636195V15.9052C0 16.197 0.19853 16.4515 0.481847 16.5228L6.21463 17.9555C6.65743 18.0667 7.12732 17.9666 7.48789 17.6857C7.84845 17.4041 8.05877 16.9723 8.05877 16.5151L8.05855 16.515ZM6.78613 3.21496V16.515C6.78613 16.5803 6.75645 16.6422 6.70476 16.6821C6.65307 16.7229 6.58604 16.7364 6.52242 16.7212L1.27243 15.408V1.47942L6.63258 3.01144C6.72332 3.03686 6.78609 3.12008 6.78609 3.21509L6.78613 3.21496Z" fill="black"/>
<path fill-rule="evenodd" clip-rule="evenodd" d="M9.23994 8.90698H14.3296C14.6808 8.90698 14.9658 8.62197 14.9658 8.27077C14.9658 7.91958 14.6808 7.63456 14.3296 7.63456L9.23994 7.63456C8.88875 7.63456 8.60373 7.91958 8.60373 8.27077C8.60373 8.62197 8.88875 8.90698 9.23994 8.90698Z" fill="black"/>
<path fill-rule="evenodd" clip-rule="evenodd" d="M13.8416 10.4169L15.5382 8.72028C15.7867 8.47176 15.7867 8.0696 15.5382 7.82108L13.8416 6.12447C13.5939 5.87596 13.1901 5.87596 12.9424 6.12447C12.6939 6.37214 12.6939 6.77602 12.9424 7.02367L14.1885 8.27068L12.9424 9.51768C12.6939 9.76535 12.6939 10.1692 12.9424 10.4169C13.1901 10.6654 13.594 10.6654 13.8416 10.4169Z" fill="black"/>
</svg>
