<svg width="28" height="28" viewBox="0 0 28 28" fill="none" xmlns="http://www.w3.org/2000/svg">
<path fill-rule="evenodd" clip-rule="evenodd" d="M23.256 20.0909C25.4308 20.0909 27.1937 21.8539 27.1937 24.0286C27.1937 26.2034 25.4307 27.9662 23.256 27.9662C21.0812 27.9662 19.3184 26.2033 19.3184 24.0286C19.3184 21.8538 21.0813 20.0909 23.256 20.0909V20.0909ZM21.3067 24.08C21.1612 23.9193 21.1738 23.6711 21.3343 23.5259C21.4951 23.3805 21.7433 23.393 21.8885 23.5536L22.8693 24.6374L24.9889 22.448C25.1402 22.2924 25.3889 22.289 25.5445 22.4404C25.7001 22.5917 25.7035 22.8404 25.5521 22.996L23.1417 25.4858L23.1412 25.4853C23.1355 25.4912 23.1293 25.4971 23.1231 25.5026C22.9626 25.648 22.7144 25.6357 22.569 25.4749L21.3064 24.08L21.3067 24.08Z" fill="#008000"/>
<path d="M13.5131 27.023C15.2318 27.0242 16.935 26.696 18.5305 26.0565C17.8915 24.7652 17.8471 23.2597 18.4091 21.9331C18.9708 20.6066 20.0831 19.5909 21.4552 19.1515C22.8273 18.7122 24.3226 18.8928 25.5505 19.6462C26.8874 17.0229 27.3307 14.0346 26.8131 11.1367C26.2956 8.23835 24.8457 5.5885 22.6836 3.58982C20.5218 1.59124 17.7662 0.353689 14.8361 0.0651335C11.9062 -0.223597 8.9621 0.452783 6.45178 1.99113C3.94147 3.52949 2.00245 5.84576 0.929295 8.58734C-0.143804 11.3291 -0.291788 14.3461 0.507463 17.1796C1.30688 20.0133 3.0097 22.5081 5.35736 24.2849C7.70497 26.0617 10.5684 27.023 13.5127 27.0228L13.5131 27.023Z" fill="#3D3C3C"/>
<path d="M19.8841 6.1819H7.19446C7.05473 6.1819 6.95508 6.28169 6.95508 6.42129V19.1109C6.95508 19.1509 6.95508 19.1708 6.97498 19.2107C6.99488 19.2706 7.05473 19.3105 7.09467 19.3304C7.11457 19.3503 7.15452 19.3503 7.19446 19.3503C7.23441 19.3503 7.25431 19.3503 7.29425 19.3304C7.31415 19.3105 7.3541 19.3105 7.374 19.2706L8.77063 17.874L10.1672 19.2706C10.2072 19.3105 10.267 19.3304 10.3269 19.3304H10.3668H10.4068C10.4666 19.3304 10.5265 19.3105 10.5664 19.2706L11.963 17.874L13.3597 19.2706C13.3996 19.3105 13.4594 19.3304 13.5193 19.3304C13.5791 19.3304 13.639 19.3105 13.6789 19.2706L15.0756 17.874L16.4722 19.2706C16.5121 19.3105 16.572 19.3304 16.6318 19.3304H16.6718H16.7117C16.7716 19.3304 16.8314 19.3105 16.8713 19.2706L18.268 17.874L19.6646 19.2706C19.6845 19.2905 19.7045 19.3105 19.7443 19.3304C19.7642 19.3503 19.8042 19.3503 19.8441 19.3503C19.8841 19.3503 19.904 19.3503 19.9439 19.3304C20.0038 19.3105 20.0437 19.2507 20.0636 19.2107C20.0835 19.1908 20.0835 19.1509 20.0835 19.1109L20.0837 6.42129C20.1235 6.30146 20.0038 6.18176 19.8841 6.18176L19.8841 6.1819ZM16.7117 18.8117L15.2752 17.3751C15.1754 17.2753 15.0358 17.2753 14.936 17.3751L13.5394 18.7718L12.1428 17.3751C12.043 17.2753 11.9034 17.2753 11.8036 17.3751L10.367 18.8117L8.93045 17.3751C8.83066 17.2753 8.69107 17.2753 8.59128 17.3751L7.43405 18.5324L7.43391 6.66076H19.6447V18.5324L18.4875 17.3751C18.3877 17.2753 18.2481 17.2753 18.1483 17.3751L16.7117 18.8117Z" fill="white"/>
<path d="M17.6298 9.85315H9.44935C9.30961 9.85315 9.20996 9.95294 9.20996 10.0925C9.20996 10.2323 9.30975 10.3319 9.44935 10.3319H17.6098C17.7496 10.3319 17.8492 10.2321 17.8492 10.0925C17.8492 9.95294 17.7494 9.85315 17.6297 9.85315H17.6298Z" fill="white"/>
<path d="M17.6298 11.7686H9.44935C9.30961 11.7686 9.20996 11.8683 9.20996 12.0079C9.20996 12.1477 9.30975 12.2473 9.44935 12.2473H17.6098C17.7496 12.2473 17.8492 12.1475 17.8492 12.0079C17.8492 11.8683 17.7494 11.7686 17.6297 11.7686H17.6298Z" fill="white"/>
<path d="M16.3726 13.6641H10.7062C10.5664 13.6641 10.4668 13.7639 10.4668 13.9034C10.4668 14.0432 10.5666 14.1428 10.7062 14.1428H16.3926C16.5323 14.1428 16.632 14.043 16.632 13.9034C16.632 13.7639 16.5123 13.6641 16.3727 13.6641H16.3726Z" fill="white"/>
</svg>
