<svg width="28" height="28" viewBox="0 0 28 28" fill="none" xmlns="http://www.w3.org/2000/svg">
<path d="M13.5131 27.023C15.2318 27.0242 16.935 26.696 18.5305 26.0565C17.8915 24.7652 17.8471 23.2597 18.4091 21.9331C18.9708 20.6066 20.0831 19.5909 21.4552 19.1515C22.8273 18.7122 24.3226 18.8928 25.5505 19.6462C26.8874 17.0229 27.3307 14.0346 26.8131 11.1367C26.2956 8.23835 24.8457 5.5885 22.6836 3.58982C20.5218 1.59124 17.7662 0.353689 14.8361 0.0651335C11.9062 -0.223597 8.9621 0.452783 6.45178 1.99113C3.94147 3.52949 2.00245 5.84576 0.929295 8.58734C-0.143804 11.3291 -0.291788 14.3461 0.507463 17.1796C1.30688 20.0133 3.0097 22.5081 5.35736 24.2849C7.70497 26.0617 10.5684 27.023 13.5127 27.0228L13.5131 27.023Z" fill="#3D3C3C"/>
<path d="M11.9922 9.33974C11.9922 10.5466 11.014 11.5248 9.80715 11.5248C8.60029 11.5248 7.62207 10.5466 7.62207 9.33974C7.62207 8.13301 8.60029 7.15466 9.80715 7.15466C11.014 7.15466 11.9922 8.13301 11.9922 9.33974Z" fill="white"/>
<path d="M19.462 9.33974C19.462 10.5466 18.4837 11.5248 17.2769 11.5248C16.07 11.5248 15.0918 10.5466 15.0918 9.33974C15.0918 8.13301 16.07 7.15466 17.2769 7.15466C18.4837 7.15466 19.462 8.13301 19.462 9.33974Z" fill="white"/>
<path d="M15.7266 12.3278C15.7266 13.5345 14.7484 14.5129 13.5415 14.5129C12.3347 14.5129 11.3564 13.5345 11.3564 12.3278C11.3564 11.1209 12.3347 10.1427 13.5415 10.1427C14.7484 10.1427 15.7266 11.1209 15.7266 12.3278Z" fill="white"/>
<path d="M15.1863 14.2888C14.738 14.6623 14.1591 14.8865 13.5428 14.8865C12.9265 14.8865 12.3475 14.6624 11.8993 14.2888C10.704 14.9051 9.86364 16.1564 9.80762 17.6318V18.8831C9.80762 19.406 11.4884 19.8169 13.5428 19.8169C15.5972 19.8169 17.278 19.406 17.278 18.8831V17.6318C17.2219 16.1565 16.3816 14.9052 15.1863 14.2888Z" fill="white"/>
<path d="M11.6189 14.0087C11.2266 13.5604 10.9839 12.9629 10.9839 12.3279C10.9839 12.0478 11.0213 11.7864 11.1147 11.5249C10.7225 11.749 10.2743 11.8798 9.80744 11.8798C9.19114 11.8798 8.61218 11.6557 8.16393 11.2821C6.96867 11.8984 6.12829 13.1497 6.07227 14.6251V15.8764C6.07227 16.3619 7.60375 16.7728 9.54598 16.8102C9.8073 15.6336 10.5543 14.6065 11.6189 14.0088L11.6189 14.0087Z" fill="white"/>
<path d="M21.0124 14.6438C20.9564 13.1684 20.116 11.917 18.9208 11.3008C18.4725 11.6743 17.8936 11.8985 17.2773 11.8985C16.7917 11.8985 16.3435 11.7677 15.97 11.5436C16.0446 11.7864 16.1008 12.0665 16.1008 12.3466C16.1008 12.9815 15.8579 13.5792 15.4658 14.0274C16.5304 14.6063 17.2774 15.6335 17.5388 16.8287C19.4811 16.7914 20.9939 16.3992 20.9939 15.8949L21.0124 14.6438Z" fill="white"/>
<path fill-rule="evenodd" clip-rule="evenodd" d="M23.0185 19.8976C25.2291 19.8976 27.0234 21.682 27.0234 23.8926C27.0234 26.1033 25.2291 27.8976 23.0185 27.8976C20.8078 27.8976 19.0234 26.1033 19.0234 23.8926C19.0234 21.682 20.8078 19.8976 23.0185 19.8976ZM23.0185 23.1094L24.1486 21.9793C24.664 21.4638 25.4571 22.2469 24.9416 22.7624L23.8115 23.8925L24.9416 25.0226C25.4571 25.538 24.664 26.3311 24.1486 25.8156L23.0185 24.6855L21.8884 25.8156C21.3729 26.3311 20.5898 25.538 21.1053 25.0226L22.2354 23.8925L21.1053 22.7624C20.5898 22.2469 21.373 21.4638 21.8884 21.9793L23.0185 23.1094Z" fill="#FF0000"/>
</svg>
