<svg width="24" height="24" viewBox="0 0 24 24" fill="none" xmlns="http://www.w3.org/2000/svg">
<path d="M15.9996 9H17.2914C17.7571 9 18.2165 9.10843 18.633 9.31671L19.287 9.64371C19.754 9.87719 20.152 10.2285 20.4416 10.6629L21.9996 13" stroke="#1A1D1F" stroke-width="1.8" stroke-linecap="round" stroke-linejoin="round"/>
<path d="M16.0004 18.8284V19C16.0004 19.8284 15.3288 20.5 14.5004 20.5H3.5004C2.67197 20.5 2.0004 19.8284 2.0004 19V4.5C2.0004 3.67157 2.67197 3 3.5004 3H14.5004C15.3288 3 16.0004 3.67157 16.0004 4.5V13.5" stroke="#1A1D1F" stroke-width="1.8" stroke-linecap="round" stroke-linejoin="round"/>
<path d="M20.0004 21L15.3172 18.4575C14.7704 18.1607 14.3004 17.7403 13.9445 17.23L11.2749 13.4011C10.8516 12.794 10.9244 11.9707 11.4478 11.4474V11.4474C12.0443 10.851 13.0112 10.8509 13.6078 11.4472L15.6614 13.4999L17.0004 13.5" stroke="#1A1D1F" stroke-width="1.8" stroke-linecap="round" stroke-linejoin="round"/>
<path d="M5.0004 14H7.0004" stroke="#1A1D1F" stroke-width="1.8" stroke-linecap="round" stroke-linejoin="round"/>
<path d="M5.0004 17H9.0004" stroke="#1A1D1F" stroke-width="1.8" stroke-linecap="round" stroke-linejoin="round"/>
<path d="M5.28165 9.19995H8.7061" stroke="#1A1D1F" stroke-width="1.8" stroke-linecap="round" stroke-linejoin="round"/>
<path d="M9.0004 10L7.5604 6H6.4404L5.0004 10" stroke="#1A1D1F" stroke-width="1.8" stroke-linecap="round" stroke-linejoin="round"/>
</svg>
