<svg width="28" height="28" viewBox="0 0 28 28" fill="none" xmlns="http://www.w3.org/2000/svg">
<path d="M13.5131 27.023C15.2318 27.0242 16.935 26.696 18.5305 26.0565C17.8915 24.7652 17.8471 23.2597 18.4091 21.9331C18.9708 20.6066 20.0831 19.5909 21.4552 19.1515C22.8273 18.7122 24.3226 18.8928 25.5505 19.6462C26.8874 17.0229 27.3307 14.0346 26.8131 11.1367C26.2956 8.23835 24.8457 5.5885 22.6836 3.58982C20.5218 1.59124 17.7662 0.353689 14.8361 0.0651335C11.9062 -0.223597 8.9621 0.452783 6.45178 1.99113C3.94147 3.52949 2.00245 5.84576 0.929295 8.58734C-0.143804 11.3291 -0.291788 14.3461 0.507463 17.1796C1.30688 20.0133 3.0097 22.5081 5.35736 24.2849C7.70497 26.0617 10.5684 27.023 13.5127 27.0228L13.5131 27.023Z" fill="#3D3C3C"/>
<path d="M11.9922 9.33974C11.9922 10.5466 11.014 11.5248 9.80715 11.5248C8.60029 11.5248 7.62207 10.5466 7.62207 9.33974C7.62207 8.13301 8.60029 7.15466 9.80715 7.15466C11.014 7.15466 11.9922 8.13301 11.9922 9.33974Z" fill="white"/>
<path d="M19.462 9.33974C19.462 10.5466 18.4837 11.5248 17.2769 11.5248C16.07 11.5248 15.0918 10.5466 15.0918 9.33974C15.0918 8.13301 16.07 7.15466 17.2769 7.15466C18.4837 7.15466 19.462 8.13301 19.462 9.33974Z" fill="white"/>
<path d="M15.7266 12.3278C15.7266 13.5345 14.7484 14.5129 13.5415 14.5129C12.3347 14.5129 11.3564 13.5345 11.3564 12.3278C11.3564 11.1209 12.3347 10.1427 13.5415 10.1427C14.7484 10.1427 15.7266 11.1209 15.7266 12.3278" fill="white"/>
<path d="M15.1863 14.2888C14.738 14.6623 14.1591 14.8865 13.5428 14.8865C12.9265 14.8865 12.3475 14.6624 11.8993 14.2888C10.704 14.9051 9.86364 16.1564 9.80762 17.6318V18.8831C9.80762 19.406 11.4884 19.8169 13.5428 19.8169C15.5972 19.8169 17.278 19.406 17.278 18.8831V17.6318C17.2219 16.1565 16.3816 14.9052 15.1863 14.2888Z" fill="white"/>
<path d="M11.6189 14.0087C11.2266 13.5604 10.9839 12.9629 10.9839 12.3279C10.9839 12.0478 11.0213 11.7864 11.1147 11.5249C10.7225 11.749 10.2743 11.8798 9.80744 11.8798C9.19114 11.8798 8.61218 11.6557 8.16393 11.2821C6.96867 11.8984 6.12829 13.1497 6.07227 14.6251V15.8764C6.07227 16.3619 7.60375 16.7728 9.54598 16.8102C9.8073 15.6336 10.5543 14.6065 11.6189 14.0088L11.6189 14.0087Z" fill="white"/>
<path d="M21.0124 14.6438C20.9564 13.1684 20.116 11.917 18.9208 11.3008C18.4725 11.6743 17.8936 11.8985 17.2773 11.8985C16.7917 11.8985 16.3435 11.7677 15.97 11.5436C16.0446 11.7864 16.1008 12.0665 16.1008 12.3466C16.1008 12.9815 15.8579 13.5792 15.4658 14.0274C16.5304 14.6063 17.2774 15.6335 17.5388 16.8287C19.4811 16.7914 20.9939 16.3992 20.9939 15.8949L21.0124 14.6438Z" fill="white"/>
<path fill-rule="evenodd" clip-rule="evenodd" d="M23.0334 19.9197C25.2082 19.9197 26.971 21.6826 26.971 23.8573C26.971 26.0322 25.208 27.795 23.0334 27.795C20.8585 27.795 19.0957 26.032 19.0957 23.8573C19.0957 21.6825 20.8587 19.9197 23.0334 19.9197V19.9197ZM21.084 23.9088C20.9386 23.748 20.9511 23.4999 21.1117 23.3546C21.2725 23.2092 21.5206 23.2218 21.6658 23.3823L22.6467 24.4661L24.7662 22.2767C24.9176 22.1211 25.1662 22.1177 25.3218 22.2691C25.4774 22.4205 25.4809 22.6691 25.3295 22.8247L22.919 25.3145L22.9185 25.314C22.9128 25.3199 22.9067 25.3259 22.9005 25.3313C22.7399 25.4768 22.4918 25.4644 22.3464 25.3036L21.0838 23.9087L21.084 23.9088Z" fill="#008000"/>
</svg>