<svg width="24" height="24" viewBox="0 0 24 24" fill="none" xmlns="http://www.w3.org/2000/svg">
<path d="M15.807 7.19301C15.952 7.33801 15.952 7.57301 15.807 7.71801C15.662 7.86301 15.427 7.86301 15.282 7.71801C15.137 7.57301 15.137 7.33801 15.282 7.19301C15.428 7.04801 15.662 7.04801 15.807 7.19301" stroke="#323232" stroke-width="1.5" stroke-linecap="round" stroke-linejoin="round"/>
<path d="M16.5 21C14.015 21 12 18.985 12 16.5C12 14.066 14.07 11.998 16.503 12C18.987 12.002 21 14.016 21 16.5C21 18.985 18.986 21 16.5 21" stroke="#323232" stroke-width="1.5" stroke-linecap="round" stroke-linejoin="round"/>
<path d="M18.188 16.5H14.813" stroke="#323232" stroke-width="1.5" stroke-linecap="round" stroke-linejoin="round"/>
<path d="M18.074 12.284L19.383 10.975C19.778 10.579 20 10.045 20 9.487V5.102C20 3.941 19.059 3 17.896 3H13.511C12.954 3 12.419 3.222 12.026 3.616L3.616 12.026C2.795 12.847 2.795 14.178 3.616 14.999L8.001 19.384C8.822 20.205 10.153 20.205 10.974 19.384L12.284 18.074" stroke="#323232" stroke-width="1.5" stroke-linecap="round" stroke-linejoin="round"/>
</svg>
