<svg width="28" height="28" viewBox="0 0 28 28" fill="none" xmlns="http://www.w3.org/2000/svg">
<path d="M13.5131 27.023C15.2318 27.0242 16.935 26.696 18.5305 26.0565C17.8915 24.7652 17.8471 23.2597 18.4091 21.9331C18.9708 20.6066 20.0831 19.5909 21.4552 19.1515C22.8273 18.7122 24.3226 18.8928 25.5505 19.6462C26.8874 17.0229 27.3307 14.0346 26.8131 11.1367C26.2956 8.23835 24.8457 5.5885 22.6836 3.58982C20.5218 1.59124 17.7662 0.353689 14.8361 0.0651335C11.9062 -0.223597 8.9621 0.452783 6.45178 1.99113C3.94147 3.52949 2.00245 5.84576 0.929295 8.58734C-0.143804 11.3291 -0.291788 14.3461 0.507463 17.1796C1.30688 20.0133 3.0097 22.5081 5.35736 24.2849C7.70497 26.0617 10.5684 27.023 13.5127 27.0228L13.5131 27.023Z" fill="#3D3C3C"/>
<path fill-rule="evenodd" clip-rule="evenodd" d="M22.9951 20C25.2057 20 27 21.7844 27 23.9951C27 26.2057 25.2057 28 22.9951 28C20.7844 28 19 26.2057 19 23.9951C19 21.7844 20.7844 20 22.9951 20ZM22.9951 23.2118L24.1251 22.0817C24.6406 21.5662 25.4337 22.3494 24.9182 22.8648L23.7881 23.9949L24.9182 25.125C25.4336 25.6405 24.6406 26.4335 24.1251 25.918L22.9951 24.7879L21.865 25.918C21.3495 26.4335 20.5663 25.6405 21.0818 25.125L22.2119 23.9949L21.0818 22.8648C20.5664 22.3494 21.3495 21.5662 21.865 22.0817L22.9951 23.2118Z" fill="#FF0000"/>
<path d="M16.9999 14.6955C16.9999 13.22 16.1682 12.2715 14.3316 11.569C12.9802 11.0421 12.4257 10.761 12.4257 10.0935C12.4257 9.56665 12.9108 9.07486 13.9156 9.07486C14.4007 9.07486 14.8165 9.14519 15.1977 9.25056C15.6828 9.39097 16.2025 9.07486 16.3412 8.54803C16.4797 8.02118 16.1679 7.45907 15.6482 7.35368C15.3016 7.24831 14.8859 7.21327 14.4008 7.17798V5.91331C14.4008 5.42151 13.985 5 13.4998 5C13.0147 5 12.5989 5.42148 12.5989 5.91331V7.17798V7.31839C10.9703 7.70483 10 8.86417 10 10.3045C10 11.815 11.1435 12.7989 12.8416 13.396C14.0891 13.8175 14.5743 14.204 14.5743 14.8364C14.5743 15.5039 14.0198 15.9607 12.9456 15.9607C12.3565 15.9607 11.8021 15.8553 11.3169 15.6796C10.7972 15.5039 10.2428 15.82 10.104 16.3822V16.4172C9.96545 16.909 10.2773 17.4358 10.7624 17.5765C11.2821 17.7522 11.9405 17.8575 12.599 17.8926L12.5992 19.0867C12.5992 19.5785 13.015 20 13.5002 20C13.9853 20 14.4011 19.5785 14.4011 19.0867V17.822V17.7517C16.1685 17.2952 17 16.0655 17 14.6955L16.9999 14.6955Z" fill="white"/>
</svg>
