<svg width="28" height="28" viewBox="0 0 28 28" fill="none" xmlns="http://www.w3.org/2000/svg">
<path d="M13.5131 27.023C15.2318 27.0242 16.935 26.696 18.5305 26.0565C17.8915 24.7652 17.8471 23.2597 18.4091 21.9331C18.9708 20.6066 20.0831 19.5909 21.4552 19.1515C22.8273 18.7122 24.3226 18.8928 25.5505 19.6462C26.8874 17.0229 27.3307 14.0346 26.8131 11.1367C26.2956 8.23835 24.8457 5.5885 22.6836 3.58982C20.5218 1.59124 17.7662 0.353689 14.8361 0.0651335C11.9062 -0.223597 8.9621 0.452783 6.45178 1.99113C3.94147 3.52949 2.00245 5.84576 0.929295 8.58734C-0.143804 11.3291 -0.291788 14.3461 0.507463 17.1796C1.30688 20.0133 3.0097 22.5081 5.35736 24.2849C7.70497 26.0617 10.5684 27.023 13.5127 27.0228L13.5131 27.023Z" fill="#3D3C3C"/>
<path d="M19.929 6.00014H7.23939C7.09965 6.00014 7 6.09993 7 6.23952V18.9292C7 18.9691 7 18.989 7.0199 19.029C7.0398 19.0888 7.09965 19.1288 7.13959 19.1487C7.1595 19.1686 7.19944 19.1686 7.23938 19.1686C7.27933 19.1686 7.29923 19.1686 7.33917 19.1487C7.35908 19.1288 7.39902 19.1288 7.41892 19.0888L8.81555 17.6922L10.2122 19.0888C10.2521 19.1288 10.312 19.1487 10.3718 19.1487H10.4118H10.4517C10.5115 19.1487 10.5714 19.1288 10.6113 19.0888L12.008 17.6922L13.4046 19.0888C13.4445 19.1288 13.5044 19.1487 13.5642 19.1487C13.6241 19.1487 13.6839 19.1288 13.7239 19.0888L15.1205 17.6922L16.5171 19.0888C16.557 19.1288 16.6169 19.1487 16.6767 19.1487H16.7167H16.7566C16.8165 19.1487 16.8763 19.1288 16.9163 19.0888L18.3129 17.6922L19.7095 19.0888C19.7294 19.1087 19.7495 19.1288 19.7893 19.1487C19.8092 19.1686 19.8491 19.1686 19.889 19.1686C19.929 19.1686 19.9489 19.1686 19.9888 19.1487C20.0487 19.1288 20.0886 19.0689 20.1085 19.029C20.1284 19.0091 20.1284 18.9691 20.1284 18.9292L20.1286 6.23952C20.1684 6.11969 20.0487 6 19.929 6L19.929 6.00014ZM16.7567 18.6299L15.3201 17.1934C15.2203 17.0936 15.0807 17.0936 14.9809 17.1934L13.5843 18.59L12.1877 17.1934C12.0879 17.0936 11.9483 17.0936 11.8485 17.1934L10.4119 18.6299L8.97538 17.1934C8.87559 17.0936 8.73599 17.0936 8.63621 17.1934L7.47897 18.3506L7.47883 6.47899H19.6896V18.3506L18.5324 17.1934C18.4326 17.0936 18.293 17.0936 18.1932 17.1934L16.7567 18.6299Z" fill="white"/>
<path d="M17.6747 9.67139H9.49427C9.35453 9.67139 9.25488 9.77118 9.25488 9.91077C9.25488 10.0505 9.35467 10.1502 9.49427 10.1502H17.6548C17.7945 10.1502 17.8941 10.0504 17.8941 9.91077C17.8941 9.77118 17.7943 9.67139 17.6747 9.67139H17.6747Z" fill="white"/>
<path d="M17.6747 11.5868H9.49427C9.35453 11.5868 9.25488 11.6866 9.25488 11.8262C9.25488 11.9659 9.35467 12.0656 9.49427 12.0656H17.6548C17.7945 12.0656 17.8941 11.9658 17.8941 11.8262C17.8941 11.6866 17.7943 11.5868 17.6747 11.5868H17.6747Z" fill="white"/>
<path d="M16.4176 13.4823H10.7511C10.6114 13.4823 10.5117 13.5821 10.5117 13.7217C10.5117 13.8614 10.6115 13.9611 10.7511 13.9611H16.4375C16.5772 13.9611 16.6769 13.8613 16.6769 13.7217C16.6769 13.5821 16.5572 13.4823 16.4176 13.4823H16.4176Z" fill="white"/>
<path fill-rule="evenodd" clip-rule="evenodd" d="M22.9951 20C25.2057 20 27 21.7844 27 23.9951C27 26.2057 25.2057 28 22.9951 28C20.7844 28 19 26.2057 19 23.9951C19 21.7844 20.7844 20 22.9951 20ZM22.9951 23.2118L24.1251 22.0817C24.6406 21.5662 25.4337 22.3494 24.9182 22.8648L23.7881 23.9949L24.9182 25.125C25.4336 25.6405 24.6406 26.4335 24.1251 25.918L22.9951 24.7879L21.865 25.918C21.3495 26.4335 20.5663 25.6405 21.0818 25.125L22.2119 23.9949L21.0818 22.8648C20.5664 22.3494 21.3495 21.5662 21.865 22.0817L22.9951 23.2118Z" fill="#FF0000"/>
</svg>
