<svg width="28" height="28" viewBox="0 0 28 28" fill="none" xmlns="http://www.w3.org/2000/svg">
<path d="M13.5131 27.023C15.2318 27.0242 16.935 26.696 18.5305 26.0565C17.8915 24.7652 17.8471 23.2597 18.4091 21.9331C18.9708 20.6066 20.0831 19.5909 21.4552 19.1515C22.8273 18.7122 24.3226 18.8928 25.5505 19.6462C26.8874 17.0229 27.3307 14.0346 26.8131 11.1367C26.2956 8.23835 24.8457 5.5885 22.6836 3.58982C20.5218 1.59124 17.7662 0.353689 14.8361 0.0651335C11.9062 -0.223597 8.9621 0.452783 6.45178 1.99113C3.94147 3.52949 2.00245 5.84576 0.929295 8.58734C-0.143804 11.3291 -0.291788 14.3461 0.507463 17.1796C1.30688 20.0133 3.0097 22.5081 5.35736 24.2849C7.70497 26.0617 10.5684 27.023 13.5127 27.0228L13.5131 27.023Z" fill="#3D3C3C"/>
<path d="M17.0914 14.8162C17.1171 13.341 16.3021 12.378 14.478 11.6435C13.136 11.0932 12.5865 10.8025 12.5981 10.1351C12.6073 9.60829 13.101 9.12504 14.1056 9.14258C14.5907 9.15105 15.0052 9.22862 15.3844 9.34063C15.867 9.48949 16.3922 9.18249 16.5401 8.65816C16.6877 8.13381 16.3858 7.56634 15.868 7.4519C15.5233 7.34049 15.1082 7.2982 14.6238 7.25445L14.6459 5.98998C14.6544 5.49825 14.2461 5.06955 13.761 5.06108C13.276 5.05261 12.8529 5.46677 12.8443 5.95853L12.8223 7.22301L12.8198 7.3634C11.1846 7.72136 10.1943 8.86358 10.1691 10.3037C10.1428 11.814 11.269 12.8177 12.9564 13.4443C14.1963 13.8875 14.6747 14.2824 14.6636 14.9147C14.652 15.5822 14.0896 16.0292 13.0156 16.0104C12.4266 16.0001 11.8741 15.8851 11.3921 15.701C10.8755 15.5162 10.3156 15.8226 10.167 16.3822L10.1664 16.4173C10.0193 16.9066 10.3219 17.4388 10.8045 17.5879C11.3211 17.7726 11.9776 17.8895 12.6353 17.936L12.6147 19.1299C12.6061 19.6216 13.0145 20.0503 13.4996 20.0588C13.9846 20.0673 14.4077 19.6531 14.4163 19.1614L14.4383 17.8969L14.4396 17.8266C16.2147 17.401 17.0675 16.186 17.0914 14.8162L17.0914 14.8162Z" fill="white"/>
<path fill-rule="evenodd" clip-rule="evenodd" d="M22.9376 20C25.1125 20 26.8753 21.763 26.8753 23.9376C26.8753 26.1125 25.1123 27.8753 22.9376 27.8753C20.7628 27.8753 19 26.1123 19 23.9376C19 21.7628 20.763 20 22.9376 20V20ZM20.9883 23.9891C20.8429 23.8283 20.8554 23.5802 21.016 23.435C21.1767 23.2895 21.4249 23.3021 21.5701 23.4626L22.551 24.5464L24.6705 22.3571C24.8219 22.2015 25.0705 22.198 25.2261 22.3494C25.3817 22.5008 25.3852 22.7494 25.2338 22.9051L22.8233 25.3949L22.8228 25.3944C22.8171 25.4003 22.811 25.4062 22.8048 25.4116C22.6442 25.5571 22.3961 25.5447 22.2507 25.384L20.9881 23.989L20.9883 23.9891Z" fill="#008000"/>
</svg>
