<svg width="24" height="25" viewBox="0 0 24 25" fill="none" xmlns="http://www.w3.org/2000/svg">
<g clip-path="url(#clip0_3642_15788)">
<path d="M14.7744 12.0179L14.7744 22.0179C14.7744 22.2831 14.6691 22.5375 14.4815 22.725C14.294 22.9125 14.0396 23.0179 13.7744 23.0179L3.77441 23.0179C3.5092 23.0179 3.25484 22.9125 3.06731 22.725C2.87977 22.5375 2.77441 22.2831 2.77441 22.0179L2.77441 12.0179C2.77441 11.7527 2.87977 11.4983 3.06731 11.3108C3.25484 11.1233 3.5092 11.0179 3.77441 11.0179L13.7744 11.0179C14.0396 11.0179 14.294 11.1233 14.4815 11.3108C14.6691 11.4983 14.7744 11.7527 14.7744 12.0179ZM12.7744 13.0179L4.77441 13.0179L4.77441 21.0179L12.7744 21.0179L12.7744 13.0179ZM13.1884 7.0179L15.0174 8.8459L13.6024 10.2609L9.36041 6.0179L13.6024 1.7749L15.0174 3.1899L13.1884 5.0179L15.7744 5.0179C17.1005 5.0179 18.3723 5.54469 19.3099 6.48237C20.2476 7.42005 20.7744 8.69182 20.7744 10.0179L20.7744 14.0179L18.7744 14.0179L18.7744 10.0179C18.7744 9.22225 18.4583 8.45919 17.8957 7.89658C17.3331 7.33397 16.5701 7.0179 15.7744 7.0179L13.1884 7.0179Z" fill="#323232"/>
</g>
<defs>
<clipPath id="clip0_3642_15788">
<rect width="24" height="23.7423" fill="white" transform="translate(23.8711 0.774902) rotate(90)"/>
</clipPath>
</defs>
</svg>
