<svg xmlns="http://www.w3.org/2000/svg" width="19" height="14" viewBox="0 0 29 24" id="shopping">
    <path fill="#fff" fill-rule="evenodd" d="M531.292 533.899H514.11a1.325 1.325 0 0 1-.937-2.264c.25-.25.584-.391.938-.391h17.012c.26 0 .484-.176.547-.426l2.836-11.338a.563.563 0 0 0-.547-.699h-22.242l-.836-3.355a.563.563 0 0 0-.549-.426h-3.77a.564.564 0 0 0-.562.562c0 .312.25.562.562.562h3.332l.84 3.355 2.691 10.775c-.389.113-.756.289-1.049.584a2.44 2.44 0 0 0-.717 1.73c0 .779.385 1.443.951 1.893-.074.057-.166.086-.236.158a2.453 2.453 0 0 0 1.734 4.183h.008c.654 0 1.27-.254 1.734-.721a2.424 2.424 0 0 0 .715-1.732c0-.5-.188-.936-.447-1.326h13.168c-.264.4-.445.84-.445 1.326a2.452 2.452 0 0 0 2.449 2.453h.01c.652 0 1.27-.254 1.73-.721a2.434 2.434 0 0 0 .717-1.732c0-1.346-1.1-2.444-2.455-2.45zm1.945-13.992l-2.555 10.213h-16.129l-2.554-10.213h21.238zm-17.799 16.451c.002.352-.137.68-.387.932-.25.25-.582.391-.936.391h-.01a1.325 1.325 0 0 1-.933-2.264 1.328 1.328 0 0 1 2.266.941zm16.795.932a1.32 1.32 0 0 1-.934.391h-.012a1.325 1.325 0 0 1-.935-2.264 1.327 1.327 0 0 1 2.267.941c.001.352-.134.68-.386.932z" transform="translate(-506 -515)"/>
</svg>