<?xml version="1.0" standalone="no"?>
<!DOCTYPE svg PUBLIC "-//W3C//DTD SVG 20010904//EN"
 "http://www.w3.org/TR/2001/REC-SVG-20010904/DTD/svg10.dtd">
<svg version="1.0" xmlns="http://www.w3.org/2000/svg"
 width="512.000000pt" height="512.000000pt" viewBox="0 0 512.000000 512.000000"
 preserveAspectRatio="xMidYMid meet">
<metadata>
Created by potrace 1.16, written by Peter Selinger 2001-2019
</metadata>
<g transform="translate(0.000000,512.000000) scale(0.100000,-0.100000)"
fill="#000000" stroke="none">
<path d="M2250 5104 c-815 -110 -1513 -670 -1804 -1447 -46 -124 -80 -250
-108 -402 -31 -165 -33 -559 -4 -735 18 -110 18 -117 1 -170 -27 -85 -32 -316
-10 -416 88 -400 398 -673 807 -709 l77 -7 3 -352 3 -351 32 -66 c65 -133 138
-191 328 -264 200 -76 425 -134 640 -167 121 -18 569 -18 690 0 289 44 679
161 808 244 65 42 124 110 161 188 l31 65 3 351 3 352 77 7 c178 16 362 88
498 196 157 126 267 310 310 521 21 104 15 325 -11 408 -17 52 -17 60 1 170
27 162 27 570 0 715 -82 454 -269 838 -560 1154 -367 399 -843 648 -1369 716
-147 19 -462 18 -607 -1z m590 -310 c849 -123 1524 -802 1645 -1655 27 -191
19 -431 -21 -654 -16 -90 -16 -90 10 -190 89 -339 -70 -637 -394 -740 -42 -13
-94 -18 -216 -19 -175 -2 -195 -7 -231 -63 -16 -24 -18 -68 -23 -448 -6 -520
7 -480 -187 -550 -52 -19 -99 -35 -104 -35 -5 0 -9 79 -9 176 0 198 -8 229
-65 264 -43 27 -129 27 -169 1 -63 -42 -66 -53 -66 -303 0 -126 -2 -228 -5
-228 -2 0 -51 -6 -107 -14 -57 -8 -122 -17 -145 -19 l-43 -5 0 240 c0 268 -5
291 -65 328 -43 27 -129 27 -169 1 -64 -43 -66 -51 -66 -324 l0 -248 -47 6
c-27 3 -94 13 -150 22 l-103 16 0 219 c0 246 -5 271 -65 308 -43 27 -129 27
-169 1 -62 -41 -66 -57 -66 -263 l0 -188 -72 26 c-129 46 -175 72 -200 112
-23 37 -23 40 -28 457 -5 380 -7 424 -23 448 -36 56 -55 61 -231 62 -147 1
-168 4 -239 28 -164 57 -279 159 -347 311 -58 129 -65 260 -24 423 26 103 26
104 11 186 -33 166 -40 259 -34 457 4 156 10 219 31 315 168 793 794 1397
1591 1535 174 30 402 32 595 4z"/>
<path d="M1470 3300 c-41 -11 -113 -39 -160 -62 -69 -34 -103 -60 -180 -138
-78 -77 -104 -111 -138 -180 -59 -118 -82 -218 -82 -350 0 -132 23 -232 82
-350 34 -69 60 -103 138 -180 77 -78 111 -104 180 -138 118 -59 218 -82 350
-82 132 0 232 23 350 82 69 34 103 60 180 138 78 77 104 111 138 180 59 118
82 218 82 350 0 132 -23 232 -82 350 -34 69 -60 103 -138 180 -77 78 -111 104
-180 138 -47 23 -121 51 -164 62 -106 27 -272 26 -376 0z m310 -302 c163 -48
296 -202 320 -367 40 -285 -216 -541 -501 -501 -188 27 -352 191 -379 378 -44
311 261 578 560 490z"/>
<path d="M3270 3300 c-41 -11 -113 -39 -160 -62 -69 -34 -103 -60 -180 -138
-78 -77 -104 -111 -138 -180 -59 -118 -82 -218 -82 -350 0 -132 23 -232 82
-350 34 -69 60 -103 138 -180 77 -78 111 -104 180 -138 118 -59 218 -82 350
-82 132 0 232 23 350 82 69 34 103 60 180 138 78 77 104 111 138 180 59 118
82 218 82 350 0 132 -23 232 -82 350 -34 69 -60 103 -138 180 -77 78 -111 104
-180 138 -47 23 -121 51 -164 62 -106 27 -272 26 -376 0z m310 -302 c163 -48
296 -202 320 -367 40 -285 -216 -541 -501 -501 -188 27 -352 191 -379 378 -44
311 261 578 560 490z"/>
<path d="M2464 1791 c-21 -15 -107 -98 -191 -183 -163 -167 -172 -182 -160
-271 4 -32 15 -51 46 -79 l40 -38 361 0 361 0 40 38 c31 28 42 47 46 79 12 89
3 104 -160 271 -195 198 -213 212 -287 212 -47 0 -64 -5 -96 -29z"/>
</g>
</svg>
