<svg width="24" height="24" viewBox="0 0 24 24" fill="none" xmlns="http://www.w3.org/2000/svg">
<path fill-rule="evenodd" clip-rule="evenodd" d="M9.70335 4.09524L3.52935 7.52524C2.23135 8.24624 2.23135 10.1122 3.52935 10.8332L9.70335 14.2632C11.1313 15.0562 12.8683 15.0562 14.2973 14.2632L20.4713 10.8332C21.7693 10.1122 21.7693 8.24624 20.4713 7.52524L14.2973 4.09524C12.8683 3.30224 11.1323 3.30224 9.70335 4.09524Z" stroke="#1A1D1F" stroke-width="1.7028" stroke-linecap="round" stroke-linejoin="round"/>
<path d="M5.992 12.2002V16.1242C5.992 17.0732 6.467 17.9582 7.256 18.4832L8.863 19.5522C10.764 20.8162 13.238 20.8162 15.138 19.5522L16.745 18.4832C17.535 17.9582 18.009 17.0722 18.009 16.1242V12.2002" stroke="#1A1D1F" stroke-width="1.70004" stroke-linecap="round" stroke-linejoin="round"/>
</svg>
