<svg width="16" height="19" viewBox="0 0 16 19" fill="none" xmlns="http://www.w3.org/2000/svg">
<path d="M9.45127 11.0005C9.40387 11.7612 8.77204 12.3635 7.99947 12.3635C7.19606 12.3635 6.54492 11.7124 6.54492 10.9089C6.54492 10.1364 7.14719 9.50456 7.90791 9.45714L9.75855 8.13537C10.0478 7.92855 10.4441 7.96135 10.6956 8.21281C10.947 8.46427 10.9798 8.86054 10.773 9.14983L9.45127 11.0005Z" fill="black"/>
<path fill-rule="evenodd" clip-rule="evenodd" d="M4.36364 0.727273C4.36364 0.325648 4.68928 0 5.09091 0H10.9091C11.3107 0 11.6364 0.325648 11.6364 0.727273C11.6364 1.1289 11.3107 1.45455 10.9091 1.45455H8.72727V2.94171C12.8047 3.30908 16 6.73604 16 10.9089C16 15.327 12.4182 18.9089 8 18.9089C3.58151 18.9089 0 15.327 0 10.9089C0 6.736 3.1953 3.30868 7.27273 2.94171V1.45455H5.09091C4.68928 1.45455 4.36364 1.1289 4.36364 0.727273ZM8 4.36364C4.38508 4.36364 1.45455 7.29417 1.45455 10.9091C1.45455 14.524 4.38508 17.4545 8 17.4545C11.6149 17.4545 14.5455 14.524 14.5455 10.9091C14.5455 7.29417 11.6149 4.36364 8 4.36364Z" fill="black"/>
</svg>
